<svg width="512" height="512" viewBox="0 0 512 512" fill="none" xmlns="http://www.w3.org/2000/svg">
<g clip-path="url(#clip0_398_384)">
<path d="M512 256C512 397.385 397.385 512 256 512C114.615 512 0 397.385 0 256C0 114.615 114.615 0 256 0C397.385 0 512 114.615 512 256ZM216.877 101.494C129.312 123.247 77.337 215.006 103.18 301.61C121.687 363.631 176.581 409.295 240.38 414.757C287.712 418.809 329.728 405.453 364.631 372.705C402.973 336.73 419.903 291.754 414.474 239.817C408.507 182.738 378.509 140.758 327.553 113.442C291.849 96.169 254.947 92.037 216.877 101.494ZM111.49 258.009C111.657 203.346 135.045 160.293 181.947 132.029C257.535 86.476 354.347 118.494 389.27 199.487C425.321 283.1 374.187 380.741 284.761 397.772C230.539 408.099 184.56 391.825 147.1 351.356C123.778 324.1 111.384 293.035 111.49 258.009ZM275.782 205.816C285.751 205.816 295.066 205.859 304.381 205.802C312.272 205.755 316.316 201.706 316.432 193.751C316.512 188.253 316.544 182.75 316.422 177.253C316.252 169.635 312.169 165.693 304.507 165.667C292.342 165.626 280.176 165.637 268.011 165.66C259.036 165.678 255.746 169.021 255.743 178.109C255.734 207.273 255.743 236.436 255.729 265.6C255.729 267.311 255.584 269.021 255.493 271.034C252.926 269.96 250.993 269 248.965 268.328C234.723 263.608 221.596 265.768 210.09 275.438C198.291 285.355 193.507 298.277 196.25 313.409C200.094 334.613 218.73 348.223 240.237 346.153C260.242 344.228 275.646 326.851 275.757 305.878C275.856 287.047 275.781 268.215 275.782 248.883C275.782 234.286 275.782 220.188 275.782 205.816Z" fill="#F20C32"/>
<path d="M216.877 101.494C129.312 123.247 77.3366 215.006 103.18 301.61C121.687 363.631 176.581 409.295 240.38 414.757C287.712 418.809 329.728 405.453 364.631 372.705C402.973 336.73 419.903 291.754 414.474 239.817C408.507 182.738 378.509 140.758 327.553 113.442C291.849 96.169 254.947 92.037 216.877 101.494ZM111.49 258.009C111.657 203.346 135.045 160.293 181.947 132.029C257.535 86.476 354.347 118.494 389.27 199.487C425.321 283.1 374.187 380.741 284.761 397.772C230.539 408.099 184.56 391.825 147.1 351.356C123.778 324.1 111.384 293.035 111.49 258.009ZM275.782 205.816C285.751 205.816 295.066 205.859 304.381 205.802C312.272 205.755 316.316 201.706 316.432 193.751C316.512 188.253 316.544 182.75 316.422 177.253C316.252 169.635 312.169 165.693 304.507 165.667C292.342 165.626 280.176 165.637 268.011 165.66C259.036 165.678 255.746 169.021 255.743 178.109C255.734 207.273 255.743 236.436 255.729 265.6C255.729 267.311 255.584 269.021 255.493 271.034C252.926 269.96 250.993 269 248.965 268.328C234.723 263.608 221.596 265.768 210.09 275.438C198.291 285.355 193.507 298.277 196.25 313.409C200.094 334.613 218.73 348.223 240.237 346.153C260.242 344.228 275.646 326.851 275.757 305.878C275.856 287.047 275.781 268.215 275.782 248.883C275.782 234.286 275.782 220.188 275.782 205.816Z" fill="white"/>
</g>
<defs>
<clipPath id="clip0_398_384">
<rect width="512" height="512" fill="white"/>
</clipPath>
</defs>
</svg>
