<svg width="512" height="512" viewBox="0 0 512 512" fill="none" xmlns="http://www.w3.org/2000/svg">
<g clip-path="url(#clip0_398_670)">
<circle cx="256" cy="256" r="160" fill="#1E1E1E"/>
<path d="M209.067 464C160.356 452.978 120.441 428.089 89.323 389.333C58.2048 350.578 42.6528 306.133 42.667 256C42.6812 205.867 58.2403 161.422 89.3443 122.667C120.448 83.9111 160.356 59.0222 209.067 48C215.823 46.2222 221.782 47.4667 226.944 51.7333C232.107 56 234.681 61.6889 234.667 68.8C234.667 73.7778 233.245 78.2222 230.4 82.1333C227.556 86.0445 223.645 88.5333 218.667 89.6C179.556 98.4889 147.556 118.4 122.667 149.333C97.7781 180.267 85.3337 215.822 85.3337 256C85.3337 296.178 97.7781 331.733 122.667 362.667C147.556 393.6 179.556 413.511 218.667 422.4C223.645 423.467 227.556 425.956 230.4 429.867C233.245 433.778 234.667 438.222 234.667 443.2C234.667 450.311 232.093 456 226.944 460.267C221.796 464.533 215.837 465.778 209.067 464ZM302.934 464C296.178 465.778 290.226 464.533 285.078 460.267C279.929 456 277.348 450.311 277.334 443.2C277.334 438.222 278.756 433.778 281.6 429.867C284.445 425.956 288.356 423.467 293.334 422.4C302.934 420.267 312.271 417.33 321.344 413.589C330.418 409.849 339.037 405.319 347.2 400C351.111 397.156 355.471 396.089 360.278 396.8C365.085 397.511 369.259 399.644 372.8 403.2C377.778 408.178 379.911 413.959 379.2 420.544C378.489 427.129 375.289 432.37 369.6 436.267C359.289 442.667 348.53 448.178 337.323 452.8C326.116 457.422 314.653 461.156 302.934 464ZM403.2 373.333C399.645 369.778 397.511 365.604 396.8 360.811C396.089 356.018 397.156 351.659 400 347.733C405.334 339.556 409.871 330.844 413.611 321.6C417.351 312.356 420.281 302.933 422.4 293.333C423.467 288.356 425.956 284.537 429.867 281.877C433.778 279.218 438.223 277.881 443.2 277.867C450.311 277.867 456 280.448 460.267 285.611C464.534 290.773 465.778 296.725 464 303.467C461.156 315.2 457.423 326.67 452.8 337.877C448.178 349.084 442.667 359.836 436.267 370.133C432.356 375.822 427.115 379.022 420.544 379.733C413.974 380.444 408.192 378.311 403.2 373.333ZM443.2 234.667C438.223 234.667 433.778 233.244 429.867 230.4C425.956 227.556 423.467 223.644 422.4 218.667C420.267 209.067 417.33 199.737 413.59 190.677C409.849 181.618 405.319 172.992 400 164.8C397.156 160.533 396.089 156.004 396.8 151.211C397.511 146.418 399.645 142.236 403.2 138.667C408.178 133.689 413.959 131.556 420.544 132.267C427.129 132.978 432.37 136.356 436.267 142.4C442.667 152.711 448.178 163.47 452.8 174.677C457.423 185.884 461.156 197.348 464 209.067C465.778 215.822 464.534 221.781 460.267 226.944C456 232.107 450.311 234.681 443.2 234.667ZM347.2 112C339.023 106.667 330.404 102.13 321.344 98.3893C312.285 94.6489 302.948 91.7191 293.334 89.6C288.356 88.5333 284.445 86.0445 281.6 82.1333C278.756 78.2222 277.334 73.7778 277.334 68.8C277.334 61.6889 279.915 56 285.078 51.7333C290.24 47.4667 296.192 46.2222 302.934 48C314.667 50.8445 326.137 54.5778 337.344 59.2C348.551 63.8222 359.303 69.3333 369.6 75.7333C375.645 79.6445 379.023 84.8925 379.734 91.4773C380.445 98.0622 378.311 103.836 373.334 108.8C369.778 112.356 365.604 114.489 360.811 115.2C356.018 115.911 351.481 114.844 347.2 112ZM276.8 280L316.267 240.533C320.534 236.267 325.689 234.133 331.734 234.133C337.778 234.133 342.934 236.267 347.2 240.533C351.467 244.8 353.515 249.956 353.344 256C353.174 262.044 350.948 267.2 346.667 271.467L270.4 347.733C266.489 351.644 261.511 353.6 255.467 353.6C249.423 353.6 244.445 351.644 240.534 347.733L163.2 269.867C158.934 265.6 156.886 260.537 157.056 254.677C157.227 248.818 159.453 243.748 163.734 239.467C168.015 235.186 173.085 233.052 178.944 233.067C184.804 233.081 189.867 235.214 194.134 239.467L234.134 280V170.667C234.134 164.622 236.182 159.559 240.278 155.477C244.374 151.396 249.437 149.348 255.467 149.333C261.497 149.319 266.567 151.367 270.678 155.477C274.788 159.588 276.829 164.651 276.8 170.667V280Z" fill="white"/>
<path d="M256 0C397.385 0 512 114.615 512 256C512 397.385 397.385 512 256 512C114.615 512 0 397.385 0 256C0 114.615 114.615 0 256 0ZM256 96C167.634 96 96 167.634 96 256C96 344.366 167.634 416 256 416C344.366 416 416 344.366 416 256C416 167.634 344.366 96 256 96Z" fill="#F20C32"/>
</g>
<defs>
<clipPath id="clip0_398_670">
<rect width="512" height="512" fill="white"/>
</clipPath>
</defs>
</svg>
