<svg width="512" height="512" viewBox="0 0 512 512" fill="none" xmlns="http://www.w3.org/2000/svg">
<g clip-path="url(#clip0_398_868)">
<circle cx="256" cy="256" r="160" fill="#1E1E1E"/>
<path d="M256.001 42.667C285.484 42.667 313.217 48.2704 339.201 59.4775C365.185 70.6846 387.763 85.8807 406.935 105.066C426.106 124.252 441.309 146.83 452.545 172.8C463.78 198.77 469.377 226.503 469.334 256C469.291 285.497 463.688 313.23 452.523 339.2C441.359 365.17 426.163 387.748 406.935 406.934C387.706 426.119 365.128 441.323 339.201 452.544C313.274 463.765 285.541 469.361 256.001 469.333C226.49 469.333 198.756 463.73 172.801 452.522C146.845 441.315 124.267 426.119 105.067 406.934C85.8675 387.748 70.6714 365.17 59.4785 339.2C48.2857 313.23 42.6822 285.497 42.668 256C42.6538 226.503 48.2572 198.77 59.4785 172.8C70.6999 146.83 85.8959 124.252 105.067 105.066C124.239 85.8807 146.817 70.6846 172.801 59.4775C198.785 48.2704 226.518 42.667 256.001 42.667ZM256.001 85.333C208.357 85.333 168.001 101.867 134.935 134.934C101.868 168 85.334 208.356 85.334 256C85.334 303.644 101.868 344 134.935 377.066C168.001 410.133 208.357 426.667 256.001 426.667C303.645 426.667 344.001 410.133 377.067 377.066C410.134 344 426.668 303.644 426.668 256C426.668 208.356 410.134 168 377.067 134.934C344.001 101.867 303.645 85.333 256.001 85.333Z" fill="white"/>
<path d="M156.686 232.848C165.305 185.009 207.411 148.863 257.87 148.863C287.827 148.863 314.822 161.583 333.616 181.895C334.887 183.268 335.876 184.877 336.525 186.632C337.175 188.386 337.472 190.251 337.401 192.121C337.329 193.99 336.89 195.827 336.109 197.527C335.328 199.227 334.219 200.756 332.847 202.028C331.474 203.299 329.865 204.288 328.111 204.937C326.356 205.587 324.491 205.884 322.621 205.813C320.752 205.741 318.915 205.302 317.215 204.521C315.515 203.74 313.986 202.631 312.714 201.259C305.728 193.696 297.248 187.665 287.811 183.548C278.374 179.431 268.185 177.317 257.889 177.339C241.381 177.282 225.325 182.73 212.26 192.821C199.195 202.912 189.867 217.07 185.75 233.057L190.25 228.766C192.996 226.278 196.604 224.959 200.308 225.089C204.011 225.219 207.518 226.787 210.083 229.461C212.649 232.135 214.071 235.705 214.047 239.41C214.023 243.116 212.555 246.666 209.955 249.307L179.163 278.846C177.78 280.171 176.143 281.204 174.351 281.882C172.559 282.559 170.648 282.869 168.734 282.791C166.82 282.713 164.941 282.249 163.21 281.428C161.479 280.606 159.932 279.444 158.66 278.011L132.501 248.472C131.179 247.087 130.151 245.45 129.476 243.658C128.802 241.867 128.496 239.958 128.576 238.046C128.656 236.133 129.121 234.257 129.943 232.528C130.765 230.8 131.927 229.254 133.36 227.985C134.793 226.716 136.467 225.749 138.282 225.141C140.097 224.533 142.016 224.298 143.924 224.449C145.832 224.6 147.69 225.134 149.387 226.019C151.084 226.905 152.585 228.123 153.801 229.602L156.686 232.848ZM345.31 233.266C347.221 233.343 349.097 233.805 350.825 234.624C352.554 235.443 354.1 236.601 355.371 238.031L381.607 267.55C382.848 268.949 383.802 270.578 384.414 272.346C385.026 274.113 385.284 275.983 385.172 277.85C385.061 279.717 384.584 281.544 383.767 283.226C382.95 284.908 381.809 286.413 380.411 287.654C379.012 288.896 377.383 289.85 375.616 290.462C373.848 291.073 371.978 291.331 370.111 291.22C368.244 291.109 366.418 290.631 364.735 289.814C363.053 288.997 361.548 287.857 360.307 286.458L357.364 283.136C348.746 331.032 306.431 367.197 255.801 367.197C241.644 367.216 227.635 364.329 214.638 358.716C201.642 353.103 189.936 344.882 180.245 334.563C178.89 333.216 177.82 331.609 177.099 329.84C176.377 328.07 176.02 326.173 176.047 324.262C176.075 322.351 176.487 320.466 177.258 318.717C178.03 316.969 179.146 315.394 180.539 314.086C181.933 312.778 183.575 311.764 185.369 311.104C187.162 310.444 189.07 310.153 190.979 310.246C192.888 310.339 194.758 310.816 196.479 311.647C198.2 312.479 199.735 313.648 200.994 315.086C208.027 322.57 216.523 328.529 225.954 332.595C235.384 336.661 245.55 338.746 255.82 338.721C272.357 338.795 288.448 333.366 301.56 323.289C314.672 313.212 324.06 299.059 328.243 283.06L323.877 287.275C322.528 288.571 320.937 289.589 319.195 290.271C317.453 290.952 315.594 291.284 313.723 291.247C311.853 291.21 310.008 290.805 308.295 290.055C306.581 289.305 305.031 288.225 303.735 286.876C302.439 285.527 301.421 283.936 300.739 282.194C300.058 280.452 299.726 278.593 299.763 276.722C299.8 274.852 300.205 273.007 300.955 271.294C301.705 269.58 302.785 268.03 304.134 266.734L334.888 237.214C336.268 235.891 337.9 234.86 339.687 234.182C341.475 233.503 343.399 233.192 345.31 233.266Z" fill="white"/>
<path d="M256 0C397.385 0 512 114.615 512 256C512 397.385 397.385 512 256 512C114.615 512 0 397.385 0 256C0 114.615 114.615 0 256 0ZM256 96C167.634 96 96 167.634 96 256C96 344.366 167.634 416 256 416C344.366 416 416 344.366 416 256C416 167.634 344.366 96 256 96Z" fill="#F20C32"/>
</g>
<defs>
<clipPath id="clip0_398_868">
<rect width="512" height="512" fill="white"/>
</clipPath>
</defs>
</svg>
