<svg width="512" height="512" viewBox="0 0 512 512" fill="none" xmlns="http://www.w3.org/2000/svg">
<g clip-path="url(#clip0_398_631)">
<path d="M256 0C397.385 0 512 114.615 512 256C512 397.385 397.385 512 256 512C114.615 512 0 397.385 0 256C0 114.615 114.615 0 256 0ZM327.553 113.442C291.849 96.1694 254.947 92.0371 216.877 101.494C129.312 123.247 77.3367 215.006 103.18 301.61C121.687 363.631 176.581 409.295 240.38 414.757C287.712 418.809 329.728 405.453 364.631 372.705C402.973 336.73 419.903 291.754 414.474 239.817C408.507 182.738 378.509 140.758 327.553 113.442Z" fill="white"/>
<path d="M224 352C224 343.513 227.372 335.374 233.373 329.373C239.374 323.371 247.513 320 256 320C264.487 320 272.627 323.371 278.628 329.373C284.629 335.374 288 343.513 288 352C288 360.487 284.629 368.626 278.628 374.627C272.627 380.629 264.487 384 256 384C247.513 384 239.374 380.629 233.373 374.627C227.372 368.626 224 360.487 224 352ZM235.008 145.493C235.899 140.575 238.488 136.125 242.325 132.921C246.162 129.716 251.002 127.961 256 127.961C260.999 127.961 265.839 129.716 269.676 132.921C273.512 136.125 276.102 140.575 276.992 145.493L277.334 149.333V256L276.992 259.84C276.102 264.759 273.512 269.209 269.676 272.413C265.839 275.617 260.999 277.372 256 277.372C251.002 277.372 246.162 275.617 242.325 272.413C238.488 269.209 235.899 264.759 235.008 259.84L234.667 256V149.333L235.008 145.493ZM469.334 256C469.334 312.58 446.858 366.842 406.85 406.849C366.842 446.857 312.58 469.333 256 469.333C199.421 469.333 145.159 446.857 105.151 406.849C65.1431 366.842 42.667 312.58 42.667 256C42.667 199.42 65.1431 145.158 105.151 105.151C145.159 65.1428 199.421 42.6667 256 42.6667C312.58 42.6667 366.842 65.1428 406.85 105.151C446.858 145.158 469.334 199.42 469.334 256ZM426.667 256C426.667 210.736 408.686 167.327 376.68 135.32C344.674 103.314 301.264 85.3333 256 85.3333C210.737 85.3333 167.327 103.314 135.321 135.32C103.315 167.327 85.3337 210.736 85.3337 256C85.3337 301.264 103.315 344.673 135.321 376.68C167.327 408.686 210.737 426.667 256 426.667C301.264 426.667 344.674 408.686 376.68 376.68C408.686 344.673 426.667 301.264 426.667 256Z" fill="white"/>
</g>
<defs>
<clipPath id="clip0_398_631">
<rect width="512" height="512" fill="white"/>
</clipPath>
</defs>
</svg>
