<svg width="512" height="512" viewBox="0 0 512 512" fill="none" xmlns="http://www.w3.org/2000/svg">
<g clip-path="url(#clip0_398_644)">
<path d="M256 0C397.385 0 512 114.615 512 256C512 397.385 397.385 512 256 512C114.615 512 0 397.385 0 256C0 114.615 114.615 0 256 0ZM327.553 113.442C291.849 96.1694 254.947 92.0371 216.877 101.494C129.312 123.247 77.3367 215.006 103.18 301.61C121.687 363.631 176.581 409.295 240.38 414.757C287.712 418.809 329.728 405.453 364.631 372.705C402.973 336.73 419.903 291.754 414.474 239.817C408.507 182.738 378.509 140.758 327.553 113.442Z" fill="white"/>
<path d="M192 341.333H320C326.045 341.333 331.115 339.285 335.211 335.189C339.307 331.093 341.348 326.03 341.334 320V192C341.334 185.956 339.286 180.892 335.19 176.811C331.094 172.729 326.031 170.681 320 170.667H192C185.956 170.667 180.893 172.715 176.811 176.811C172.729 180.907 170.681 185.97 170.667 192V320C170.667 326.044 172.715 331.115 176.811 335.211C180.907 339.307 185.97 341.348 192 341.333ZM256 469.333C226.489 469.333 198.756 463.73 172.8 452.523C146.845 441.316 124.267 426.119 105.067 406.933C85.867 387.748 70.6706 365.17 59.4777 339.2C48.2848 313.23 42.6812 285.497 42.667 256C42.6528 226.503 48.2564 198.77 59.4777 172.8C70.699 146.83 85.8955 124.252 105.067 105.067C124.239 85.8809 146.816 70.6844 172.8 59.4773C198.784 48.2702 226.518 42.6667 256 42.6667C285.483 42.6667 313.216 48.2702 339.2 59.4773C365.184 70.6844 387.762 85.8809 406.934 105.067C426.105 124.252 441.309 146.83 452.544 172.8C463.78 198.77 469.376 226.503 469.334 256C469.291 285.497 463.687 313.23 452.523 339.2C441.359 365.17 426.162 387.748 406.934 406.933C387.705 426.119 365.127 441.323 339.2 452.544C313.273 463.765 285.54 469.362 256 469.333ZM256 426.667C303.645 426.667 344 410.133 377.067 377.067C410.134 344 426.667 303.644 426.667 256C426.667 208.356 410.134 168 377.067 134.933C344 101.867 303.645 85.3333 256 85.3333C208.356 85.3333 168 101.867 134.934 134.933C101.867 168 85.3337 208.356 85.3337 256C85.3337 303.644 101.867 344 134.934 377.067C168 410.133 208.356 426.667 256 426.667Z" fill="white"/>
</g>
<defs>
<clipPath id="clip0_398_644">
<rect width="512" height="512" fill="white"/>
</clipPath>
</defs>
</svg>
